<svg width="219" height="74" viewBox="0 0 219 74" fill="none" xmlns="http://www.w3.org/2000/svg">
<rect x="0.75" width="217.375" height="74" rx="10" fill="white"/>
<g clip-path="url(#clip0_1_104)">
<path d="M117.568 27.0501C117.568 28.4917 116.406 29.6525 114.965 29.6525C113.523 29.6525 112.362 28.4917 112.362 27.0501C112.362 25.6085 113.483 24.4478 114.965 24.4478C116.447 24.4878 117.568 25.6489 117.568 27.0501ZM106.837 32.2956V32.9364C106.837 32.9364 105.596 31.334 102.953 31.334C98.5893 31.334 95.1853 34.6576 95.1853 39.2619C95.1853 43.8266 98.5493 47.1897 102.953 47.1897C105.636 47.1897 106.837 45.5481 106.837 45.5481V46.2285C106.837 46.5489 107.078 46.7885 107.397 46.7885H110.64V31.7332H107.397C107.078 31.7344 106.837 32.0152 106.837 32.2956ZM106.837 41.9446C106.237 42.8258 105.035 43.5866 103.594 43.5866C101.032 43.5866 99.0693 41.985 99.0693 39.2619C99.0693 36.5391 101.032 34.9376 103.594 34.9376C104.996 34.9376 106.277 35.7383 106.837 36.5791V41.9446ZM113.043 31.7344H116.887V46.7897H113.043V31.7344ZM170.46 31.3336C167.817 31.3336 166.576 32.936 166.576 32.936V24.4878H162.732V46.7897H165.976C166.296 46.7897 166.536 46.5093 166.536 46.2289V45.5485C166.536 45.5485 167.777 47.1901 170.419 47.1901C174.784 47.1901 178.187 43.8278 178.187 39.2631C178.187 34.6984 174.784 31.3336 170.46 31.3336ZM169.819 43.5462C168.337 43.5462 167.176 42.7862 166.576 41.9046V36.5391C167.176 35.7383 168.457 34.8976 169.819 34.8976C172.381 34.8976 174.343 36.4991 174.343 39.2219C174.343 41.9446 172.382 43.5462 169.819 43.5462ZM160.73 37.8611V46.8297H156.886V38.3011C156.886 35.8191 156.085 34.8176 153.925 34.8176C152.764 34.8176 151.562 35.4183 150.8 36.2995V46.7901H146.957V31.7348H149.999C150.32 31.7348 150.56 32.0152 150.56 32.2956V32.9364C151.681 31.7748 153.163 31.334 154.644 31.334C156.326 31.334 157.727 31.8152 158.848 32.776C160.209 33.8972 160.73 35.3384 160.73 37.8611ZM137.627 31.3336C134.985 31.3336 133.743 32.936 133.743 32.936V24.4878H129.9V46.7897H133.143C133.463 46.7897 133.703 46.5093 133.703 46.2289V45.5485C133.703 45.5485 134.945 47.1901 137.587 47.1901C141.952 47.1901 145.355 43.8278 145.355 39.2631C145.395 34.698 141.992 31.3336 137.627 31.3336ZM136.986 43.5462C135.505 43.5462 134.344 42.7862 133.743 41.9046V36.5391C134.344 35.7383 135.625 34.8976 136.986 34.8976C139.549 34.8976 141.511 36.4991 141.511 39.2219C141.511 41.9446 139.549 43.5462 136.986 43.5462ZM126.576 31.3336C127.737 31.3336 128.338 31.5344 128.338 31.5344V35.0975C128.338 35.0975 125.135 34.0164 123.133 36.2991V46.8293H119.289V31.7344H122.532C122.853 31.7344 123.092 32.0148 123.092 32.2952V32.936C123.814 32.0948 125.376 31.3336 126.576 31.3336ZM86.6575 45.4282C86.4575 44.9478 86.2571 44.4274 86.0571 43.9866C85.7363 43.2662 85.4159 42.585 85.1363 41.9446L85.0963 41.9046C82.3332 35.8983 79.3708 29.8129 76.2473 23.8074L76.1273 23.5666C75.7988 22.9436 75.4786 22.3162 75.1669 21.6846C74.7661 20.9634 74.3661 20.2034 73.7254 19.4823C72.4442 17.8807 70.6022 16.9995 68.6407 16.9995C66.6383 16.9995 64.8367 17.8807 63.516 19.4019C62.9152 20.1223 62.4744 20.883 62.0744 21.6042C61.7619 22.2354 61.4418 22.8628 61.114 23.4862L60.9936 23.727C57.9105 29.7325 54.9077 35.8183 52.145 41.8242L52.1046 41.9038C51.8246 42.5454 51.5038 43.2258 51.1834 43.9458C50.9834 44.3866 50.7834 44.867 50.5834 45.3873C50.0626 46.8685 49.9022 48.2701 50.103 49.7121C50.5434 52.7152 52.545 55.2368 55.3081 56.3587C56.3493 56.7995 57.4305 56.9995 58.5513 56.9995C58.8717 56.9995 59.2717 56.9595 59.5925 56.9191C60.914 56.7591 62.2752 56.3191 63.5968 55.5583C65.2383 54.6372 66.7999 53.3164 68.5615 51.3944C70.323 53.3164 71.9246 54.6372 73.5262 55.5583C74.8481 56.3191 76.2089 56.7591 77.5301 56.9191C77.8505 56.9599 78.2513 56.9995 78.5717 56.9995C79.6928 56.9995 80.8136 56.7995 81.8144 56.3587C84.6176 55.2368 86.5791 52.6752 87.0199 49.7121C87.3379 48.3109 87.1779 46.9101 86.6575 45.4282ZM68.6003 47.5101C66.4379 44.7874 65.0363 42.225 64.5563 40.0635C64.3563 39.1423 64.316 38.3415 64.4364 37.6207C64.516 36.9799 64.7567 36.4191 65.0771 35.9387C65.8379 34.8584 67.1191 34.1772 68.6007 34.1772C70.0826 34.1772 71.4038 34.818 72.1246 35.9387C72.445 36.4191 72.685 36.9803 72.7658 37.6207C72.8854 38.3419 72.8454 39.1823 72.6454 40.0635C72.1634 42.185 70.7618 44.7478 68.6003 47.5101ZM84.5751 49.3921C84.2952 51.474 82.8936 53.2764 80.932 54.0772C79.9712 54.4772 78.9297 54.5976 77.8893 54.4772C76.8885 54.3568 75.8869 54.0364 74.8465 53.4364C73.405 52.6348 71.9638 51.3944 70.2818 49.5521C72.9242 46.3093 74.5258 43.3458 75.1265 40.7038C75.4069 39.4623 75.4473 38.3415 75.3265 37.2999C75.1669 36.2991 74.8061 35.3779 74.2458 34.5772C73.0038 32.7748 70.9214 31.7344 68.5999 31.7344C66.2783 31.7344 64.196 32.8156 62.9548 34.5772C62.3944 35.3779 62.0336 36.2991 61.8736 37.2999C61.7136 38.3415 61.7532 39.5023 62.0736 40.7038C62.674 43.3458 64.3156 46.3489 66.9179 49.5921C65.2763 51.434 63.7948 52.6756 62.3532 53.4764C61.312 54.0772 60.3116 54.3976 59.3109 54.5172C58.2301 54.6376 57.1885 54.4772 56.2677 54.1172C54.3062 53.3164 52.9046 51.514 52.6246 49.4321C52.5046 48.4313 52.5842 47.4305 52.985 46.3093C53.1046 45.9085 53.3054 45.5086 53.5054 45.0282C53.7858 44.3874 54.1054 43.7062 54.4262 43.0258L54.4666 42.9462C57.2289 36.9799 60.1916 30.894 63.2748 24.9686L63.3948 24.7278C63.7156 24.1278 64.036 23.487 64.356 22.8862C64.6764 22.2454 65.0363 21.6446 65.4771 21.1238C66.3179 20.1639 67.4387 19.6427 68.6803 19.6427C69.9218 19.6427 71.0426 20.1639 71.8834 21.1238C72.3242 21.6458 72.6842 22.2466 73.0046 22.8862C73.3254 23.487 73.6458 24.1278 73.9654 24.7278L74.0858 24.9686C77.1219 30.9187 80.0453 36.9256 82.8544 42.9862V43.0262C83.1752 43.6678 83.4552 44.3878 83.7756 45.0294C83.9756 45.5089 84.176 45.9089 84.296 46.3097C84.6155 47.3497 84.7355 48.3513 84.5751 49.3921Z" fill="#FF5A5F"/>
</g>
<defs>
<clipPath id="clip0_1_104">
<rect width="128.205" height="40" fill="white" transform="translate(50 17)"/>
</clipPath>
</defs>
</svg>
