<svg width="218" height="74" viewBox="0 0 218 74" fill="none" xmlns="http://www.w3.org/2000/svg">
<rect x="0.125" width="217.375" height="74" rx="10" fill="white"/>
<g clip-path="url(#clip0_1_107)">
<path d="M47.3287 27.4182C45.6328 27.4182 45.124 28.1644 45.124 29.8264V32.5738H49.6691L49.2282 37.051H45.124V50.5845H39.6632V37.051H36V32.6077H39.6632V29.9281C39.6632 25.3831 41.4948 23.0088 46.5486 23.0088C47.6001 23.0088 48.6855 23.0766 49.7369 23.2123V27.4182" fill="#1A5098"/>
<path d="M50.0421 41.0196C50.0421 35.9997 52.4164 32.2008 57.4364 32.2008C60.1498 32.2008 61.8118 33.5915 62.6259 35.3552V32.6078H67.8493V50.6185H62.592V47.905C61.8458 49.6349 60.1159 50.9916 57.4024 50.9916C52.4164 50.9916 50.0082 47.2267 50.0082 42.1728L50.0421 41.0196ZM55.503 42.2407C55.503 44.9202 56.4866 46.7179 59.0305 46.7179C61.2692 46.7179 62.3885 45.0898 62.3885 42.512V40.6804C62.3885 38.1026 61.2352 36.4745 59.0305 36.4745C56.4866 36.4745 55.503 38.2383 55.503 40.9518V42.2407Z" fill="#1A5098"/>
<path d="M79.1781 32.2008C81.281 32.2008 83.3161 32.6417 84.4015 33.4219L83.1805 37.2886C82.0612 36.7459 80.8062 36.4745 79.5512 36.4745C76.6003 36.4745 75.3114 38.1704 75.3114 41.0874V42.1389C75.3114 45.0559 76.6003 46.7518 79.5512 46.7518C80.8062 46.7518 82.0612 46.4465 83.1805 45.9038L84.4015 49.7705C83.3161 50.5168 81.315 50.9916 79.1781 50.9916C72.7675 50.9916 69.8845 47.5659 69.8845 42.0371V41.1892C69.8845 35.6605 72.7675 32.2008 79.1781 32.2008Z" fill="#1A5098"/>
<path d="M85.1141 42.2746V40.6804C85.1141 35.5587 88.0311 32.2008 93.9668 32.2008C99.5633 32.2008 102.039 35.5926 102.039 40.6126V43.4956H90.575C90.6767 45.9717 91.796 47.0571 94.8148 47.0571C96.782 47.0571 98.7493 46.6839 100.615 45.9717L101.598 49.7027C100.174 50.4489 97.223 51.0255 94.6113 51.0255C87.6919 50.9916 85.1141 47.5658 85.1141 42.2746ZM90.575 39.9003H97.1551V39.4593C97.1551 37.4921 96.375 35.9318 93.9668 35.9318C91.5247 35.9318 90.575 37.4921 90.575 39.9003Z" fill="#1A5098"/>
<path d="M122.254 42.1726C122.254 47.1925 119.846 50.9914 114.826 50.9914C112.113 50.9914 110.213 49.6347 109.467 47.9048V50.6183H104.311V23.5514L109.772 23.0765V35.1176C110.552 33.5234 112.316 32.2345 114.86 32.2345C119.846 32.2345 122.288 35.9995 122.288 41.0533L122.254 42.1726ZM116.793 40.9176C116.793 38.3737 115.81 36.4743 113.198 36.4743C110.96 36.4743 109.772 38.0685 109.772 40.6463V42.5457C109.772 45.1235 110.993 46.7177 113.198 46.7177C115.81 46.7177 116.793 44.8182 116.793 42.2744V40.9176Z" fill="#1A5098"/>
<path d="M124.052 42.0371V41.1213C124.052 35.9318 127.003 32.2008 133.007 32.2008C139.01 32.2008 141.961 35.9318 141.961 41.1213V42.0371C141.961 47.2267 139.01 50.9577 133.007 50.9577C127.003 50.9577 124.052 47.2606 124.052 42.0371ZM136.534 40.7482C136.534 38.374 135.551 36.4745 133.007 36.4745C130.463 36.4745 129.479 38.374 129.479 40.7482V42.4442C129.479 44.8185 130.463 46.7179 133.007 46.7179C135.551 46.7179 136.534 44.8185 136.534 42.4442V40.7482Z" fill="#1A5098"/>
<path d="M143.827 42.0371V41.1213C143.827 35.9318 146.777 32.2008 152.781 32.2008C158.785 32.2008 161.735 35.9318 161.735 41.1213V42.0371C161.735 47.2267 158.785 50.9577 152.781 50.9577C146.777 50.9577 143.827 47.2606 143.827 42.0371ZM156.309 40.7482C156.309 38.374 155.325 36.4745 152.781 36.4745C150.237 36.4745 149.253 38.374 149.253 40.7482V42.4442C149.253 44.8185 150.237 46.7179 152.781 46.7179C155.325 46.7179 156.309 44.8185 156.309 42.4442V40.7482Z" fill="#1A5098"/>
<path d="M169.231 41.189L174.624 32.5737H180.39L174.76 41.4942L180.628 50.6183H174.828L169.231 41.7995V50.6183H163.804V23.5514L169.231 23.0426" fill="#1A5098"/>
</g>
<defs>
<clipPath id="clip0_1_107">
<rect width="144.628" height="28" fill="white" transform="translate(36 23)"/>
</clipPath>
</defs>
</svg>
