<svg width="218" height="74" viewBox="0 0 218 74" fill="none" xmlns="http://www.w3.org/2000/svg">
<rect width="217.375" height="74" rx="10" fill="white"/>
<path d="M63.7791 17H64.8462C68.5509 17.0805 72.1952 18.5705 74.8127 21.2081C73.8462 22.1946 72.8596 23.1409 71.9133 24.1275C70.4435 22.7987 68.6717 21.7718 66.7388 21.4094C63.8798 20.8054 60.7992 21.349 58.4033 22.9799C55.7858 24.6913 54.014 27.5906 53.6315 30.6913C53.2086 33.7517 54.0744 36.9732 56.0677 39.349C57.9805 41.6644 60.8999 43.1141 63.92 43.2148C66.7388 43.3758 69.6784 42.5101 71.7321 40.5369C73.3429 39.1476 74.0878 37.0336 74.3294 34.9799C70.9872 34.9799 67.6449 35 64.3026 34.9799V30.8322H78.3764C79.1013 35.2819 78.0543 40.2953 74.6717 43.4765C72.4167 45.7315 69.2959 47.0604 66.1147 47.3221C63.0341 47.6242 59.8529 47.0403 57.1147 45.5503C53.8328 43.7987 51.2154 40.8389 49.9268 37.3557C48.7187 34.1544 48.6986 30.5302 49.8261 27.3087C50.8529 24.3691 52.8261 21.7718 55.363 19.9597C57.7992 18.1678 60.759 17.1812 63.7791 17Z" fill="#4285F4"/>
<path d="M144.517 18.0471H148.826V46.7988C147.397 46.7988 145.947 46.8189 144.517 46.7787C144.537 37.2149 144.517 27.631 144.517 18.0471Z" fill="#34A853"/>
<path d="M87.96 28.0136C90.6177 27.5102 93.4969 28.074 95.6916 29.6646C97.6848 31.074 99.0741 33.2887 99.4969 35.7048C100.041 38.5035 99.356 41.5639 97.5439 43.7787C95.5909 46.2552 92.3895 47.584 89.2687 47.3827C86.4097 47.2216 83.6311 45.7921 81.9399 43.4565C80.0271 40.8793 79.564 37.3357 80.611 34.3156C81.658 31.074 84.6177 28.5975 87.96 28.0136ZM88.564 31.8391C87.4768 32.121 86.4701 32.7451 85.7452 33.631C83.7922 35.9666 83.913 39.772 86.0674 41.9465C87.2956 43.1948 89.1479 43.7787 90.8593 43.4364C92.4499 43.1545 93.8392 42.0874 94.6043 40.678C95.9332 38.282 95.5506 34.98 93.5171 33.1075C92.2083 31.8995 90.2956 31.3961 88.564 31.8391Z" fill="#EA4335"/>
<path d="M109.302 28.0135C112.343 27.4296 115.665 28.2752 117.94 30.4094C121.645 33.7316 122.047 39.9531 118.886 43.7786C116.973 46.1947 113.873 47.5235 110.812 47.3826C107.893 47.3021 105.014 45.8524 103.282 43.4564C101.329 40.8188 100.906 37.1947 102.014 34.1141C103.121 30.9732 106.02 28.5772 109.302 28.0135ZM109.906 31.839C108.819 32.1208 107.812 32.745 107.088 33.6108C105.155 35.9061 105.235 39.651 107.309 41.8457C108.537 43.1544 110.45 43.7987 112.222 43.4363C113.792 43.1343 115.202 42.0873 115.967 40.6779C117.275 38.2618 116.893 34.9598 114.839 33.0873C113.53 31.8792 111.618 31.396 109.906 31.839Z" fill="#FBBC05"/>
<path d="M127.403 29.1814C129.718 27.7317 132.799 27.329 135.296 28.5774C136.081 28.9196 136.725 29.5035 137.349 30.0874C137.369 29.5438 137.349 28.98 137.369 28.4163C138.718 28.4364 140.067 28.4163 141.437 28.4364V46.1948C141.416 48.8727 140.732 51.7116 138.799 53.6646C136.685 55.819 133.443 56.4834 130.524 56.0405C127.403 55.5774 124.685 53.3022 123.477 50.423C124.685 49.8391 125.953 49.376 127.202 48.8324C127.906 50.4834 129.336 51.8928 131.128 52.215C132.92 52.5371 134.994 52.0942 136.161 50.6042C137.41 49.074 137.41 46.9801 137.349 45.1076C136.423 46.0136 135.356 46.819 134.067 47.121C131.269 47.9062 128.188 46.9398 126.034 45.0472C123.859 43.1546 122.571 40.2351 122.692 37.3358C122.752 34.0539 124.604 30.8928 127.403 29.1814ZM131.571 31.7586C130.343 31.9599 129.195 32.6445 128.41 33.5908C126.517 35.8458 126.517 39.4499 128.43 41.6646C129.517 42.9733 131.269 43.6982 132.96 43.517C134.551 43.3559 136.02 42.3492 136.806 40.9599C138.135 38.6042 137.913 35.4029 136.121 33.3492C135.014 32.0807 133.242 31.4566 131.571 31.7586Z" fill="#4285F4"/>
<path d="M154.001 30.2081C156.417 27.9531 160.142 27.188 163.242 28.3759C166.182 29.4833 168.055 32.2819 169.001 35.1611C164.632 36.9732 160.283 38.7652 155.914 40.5772C156.518 41.7249 157.444 42.7719 158.692 43.1947C160.444 43.8189 162.538 43.5974 164.008 42.4296C164.591 41.9866 165.055 41.4027 165.498 40.839C166.605 41.584 167.712 42.3088 168.82 43.0538C167.249 45.4095 164.612 47.0605 161.773 47.3222C158.632 47.7048 155.289 46.4967 153.256 44.0403C149.914 40.1746 150.236 33.6913 154.001 30.2081ZM156.155 33.9329C155.471 34.9195 155.189 36.1276 155.209 37.3155C158.128 36.1074 161.048 34.8994 163.967 33.6712C163.484 32.5437 162.316 31.8591 161.128 31.6779C159.216 31.3356 157.222 32.3625 156.155 33.9329Z" fill="#EA4335"/>
</svg>
