<svg width="219" height="74" viewBox="0 0 219 74" fill="none" xmlns="http://www.w3.org/2000/svg">
<rect x="0.6875" width="217.375" height="74" rx="10" fill="white"/>
<path d="M55.8042 18.261C56.0839 18.261 56.2238 18.4009 56.5035 18.5408C54.8252 19.2401 53.1469 21.0582 52.3077 24.9743L49.2308 25.8135C50.2098 23.0163 52.1678 18.261 55.8042 18.261ZM57.3427 19.6596C57.6224 20.4988 57.9021 21.4778 57.9021 23.0163C57.9021 23.1561 57.9021 23.1561 57.9021 23.296L53.8462 24.4149C54.6853 21.4778 56.0839 20.2191 57.3427 19.6596ZM60.979 22.1771L59.1608 22.7366C59.1608 22.5967 59.1608 22.4568 59.1608 22.317C59.1608 21.0582 59.021 20.0792 58.7413 19.2401C59.7203 19.5198 60.5594 20.7785 60.979 22.1771ZM70.0699 24.4149C70.0699 24.275 69.9301 24.1352 69.7902 24.1352C69.5105 24.1352 66.5734 23.8554 66.5734 23.8554C66.5734 23.8554 64.4755 21.7575 64.1958 21.6177C63.9161 21.338 63.4965 21.4778 63.3566 21.4778C63.3566 21.4778 62.9371 21.6177 62.2378 21.8974C61.5385 19.9394 60.2797 18.1212 58.1818 18.1212H58.042C57.4825 17.282 56.6434 17.0023 55.9441 17.0023C50.9091 16.8624 48.5315 23.1561 47.6923 26.3729C46.5734 26.6526 45.4545 27.0722 44.1958 27.4918C43.0769 27.7715 43.0769 27.9114 42.9371 28.8904C42.7972 29.5897 40 51.6876 40 51.6876L62.2378 55.8834L74.2657 53.2261C74.2657 53.2261 70.0699 24.6946 70.0699 24.4149Z" fill="#8DB849"/>
<path d="M69.6504 24.1352C69.5106 24.1352 66.5735 23.8555 66.5735 23.8555C66.5735 23.8555 64.4756 21.7576 64.1959 21.6178C64.056 21.4779 64.056 21.4779 63.9161 21.4779L62.2378 55.8835L74.2658 53.2262C74.2658 53.2262 70.07 24.6947 70.07 24.415C70.07 24.2751 69.7903 24.1352 69.6504 24.1352Z" fill="#5A863E"/>
<path d="M58.1819 30.8484L56.6434 35.324C56.6434 35.324 55.3847 34.6247 53.7063 34.6247C51.3287 34.6247 51.1889 36.0233 51.1889 36.4428C51.1889 38.4009 56.5035 39.24 56.5035 43.9953C56.5035 47.7715 54.1259 50.1491 50.9091 50.1491C47.1329 50.1491 45.1749 47.7715 45.1749 47.7715L46.1539 44.4149C46.1539 44.4149 48.1119 46.0932 49.7902 46.0932C50.9091 46.0932 51.3287 45.254 51.3287 44.5547C51.3287 41.8974 46.993 41.7575 46.993 37.4219C46.993 33.7855 49.6504 30.289 54.8252 30.289C57.2028 30.1491 58.1819 30.8484 58.1819 30.8484Z" fill="#FFFFFE"/>
<path d="M88.3916 39.1003C87.1329 38.401 86.5734 37.8415 86.5734 37.1422C86.5734 36.1632 87.4126 35.6038 88.8112 35.6038C90.3497 35.6038 91.7483 36.3031 91.7483 36.3031L92.8671 32.9464C92.8671 32.9464 91.8881 32.1073 88.951 32.1073C84.7552 32.1073 81.958 34.4849 81.958 37.8415C81.958 39.7996 83.3566 41.1982 85.035 42.1772C86.4336 43.0163 86.993 43.5758 86.993 44.4149C86.993 45.2541 86.2937 46.0933 84.8951 46.0933C82.9371 46.0933 80.979 45.1143 80.979 45.1143L79.8601 48.4709C79.8601 48.4709 81.5385 49.5898 84.4755 49.5898C88.6713 49.5898 91.7483 47.4919 91.7483 43.7156C91.7483 41.6177 90.2098 40.0793 88.3916 39.1003ZM105.315 31.9674C103.217 31.9674 101.538 32.9464 100.28 34.4849L102.098 24.9744H97.3427L92.7273 49.1702H97.4825L99.021 40.9184C99.5804 37.8415 101.259 35.8835 102.797 35.8835C103.916 35.8835 104.336 36.5828 104.336 37.7017C104.336 38.401 104.336 39.1003 104.196 39.7996L102.378 49.3101H107.133L108.951 39.5198C109.091 38.5408 109.231 37.2821 109.231 36.4429C109.231 33.6457 107.832 31.9674 105.315 31.9674ZM117.483 45.8136C115.804 45.8136 115.245 44.4149 115.245 42.7366C115.245 40.0793 116.643 35.6038 119.161 35.6038C120.839 35.6038 121.399 37.0024 121.399 38.401C121.399 41.4779 120 45.8136 117.483 45.8136ZM119.86 31.9674C114.126 31.9674 110.35 37.1422 110.35 42.8765C110.35 46.5128 112.587 49.4499 116.923 49.4499C122.517 49.4499 126.294 44.4149 126.294 38.5408C126.294 35.1842 124.336 31.9674 119.86 31.9674ZM133.846 45.9534C132.587 45.9534 131.888 45.2541 131.888 45.2541L132.727 40.7786C133.287 37.8415 134.825 35.8835 136.504 35.8835C137.902 35.8835 138.462 37.2821 138.462 38.5408C138.322 41.6177 136.503 45.9534 133.846 45.9534ZM138.462 31.9674C135.245 31.9674 133.427 34.7646 133.427 34.7646L133.706 32.2471H129.51C129.371 33.9254 128.951 36.5828 128.531 38.5408L125.175 55.8835H129.93L131.189 48.8905H131.329C131.329 48.8905 132.308 49.4499 134.126 49.4499C139.72 49.4499 143.357 43.7156 143.357 37.9814C143.357 34.9045 141.958 31.9674 138.462 31.9674ZM150.07 25.2541C148.531 25.2541 147.413 26.5129 147.413 28.0513C147.413 29.4499 148.252 30.4289 149.65 30.4289C151.189 30.4289 152.448 29.4499 152.448 27.6317C152.448 26.2331 151.469 25.2541 150.07 25.2541ZM143.497 49.1702H148.252L151.469 32.387H146.713L143.497 49.1702ZM163.497 32.387H160.14L160.28 31.5478C160.559 29.8695 161.538 28.4709 163.077 28.4709C163.916 28.4709 164.615 28.7506 164.615 28.7506L165.594 24.9744C165.594 24.9744 164.755 24.5548 163.077 24.5548C161.399 24.5548 159.72 24.9744 158.462 26.0933C156.783 27.4919 156.084 29.4499 155.664 31.408L155.524 32.2471H153.287L152.587 35.8835H154.825L152.308 49.1702H157.063L159.58 35.8835H162.797L163.497 32.387ZM174.825 32.387C174.825 32.387 171.888 39.7996 170.49 43.8555C170.35 42.5968 169.371 32.387 169.371 32.387H164.336L167.133 47.7716C167.133 48.0513 167.133 48.331 166.993 48.6108C166.434 49.7296 165.455 50.7087 164.476 51.408C163.636 52.1073 162.517 52.5268 161.818 52.8066L163.077 56.8625C164.056 56.7226 166.014 55.8835 167.692 54.345C169.79 52.387 171.888 49.1702 173.846 44.9744L179.58 32.5268L174.825 32.387Z" fill="#1A1919"/>
</svg>
