<svg width="218" height="74" viewBox="0 0 218 74" fill="none" xmlns="http://www.w3.org/2000/svg">
<rect x="0.5" width="217.375" height="74" rx="10" fill="white"/>
<path fill-rule="evenodd" clip-rule="evenodd" d="M83.5152 47.3458L85.2907 43.22C87.2085 44.6541 89.7637 45.3996 92.2847 45.3996C94.1456 45.3996 95.3236 44.6825 95.3236 43.5956C95.2952 40.5567 84.1753 42.9355 84.09 35.3155C84.0615 31.4457 87.4988 28.4637 92.3701 28.4637C95.2667 28.4637 98.1576 29.1808 100.223 30.814L98.5617 35.0252C96.6723 33.8188 94.322 32.9595 92.0855 32.9595C90.5661 32.9595 89.5645 33.6765 89.5645 34.5927C89.593 37.5747 100.798 35.9415 100.912 43.22C100.912 47.1751 97.5601 49.9579 92.7457 49.9579C89.2174 49.9522 85.9793 49.1214 83.5152 47.3458ZM151.697 41.729C150.809 43.2769 149.147 44.3354 147.224 44.3354C144.384 44.3354 142.096 42.042 142.096 39.208C142.096 36.374 144.39 34.0806 147.224 34.0806C149.142 34.0806 150.809 35.1391 151.697 36.687L156.596 33.9668C154.764 30.7002 151.236 28.4637 147.224 28.4637C141.288 28.4637 136.474 33.2782 136.474 39.2137C136.474 45.1492 141.288 49.9636 147.224 49.9636C151.264 49.9636 154.764 47.7556 156.596 44.4606L151.697 41.729ZM103.376 19.5463H109.511V49.5539H103.376V19.5463ZM159.004 19.5463V49.5539H165.138V40.551L172.417 49.5539H180.27L171.011 38.8608L179.582 28.8849H172.07L165.133 37.165V19.5463H159.004Z" fill="black"/>
<path d="M127.738 41.7857C126.85 43.2483 125.018 44.3352 122.952 44.3352C120.112 44.3352 117.825 42.0418 117.825 39.2078C117.825 36.3738 120.118 34.0804 122.952 34.0804C125.018 34.0804 126.85 35.2242 127.738 36.7152V41.7857ZM127.738 28.8904V31.326C126.736 29.6359 124.244 28.4579 121.632 28.4579C116.242 28.4579 112.003 33.2154 112.003 39.1794C112.003 45.1433 116.242 49.9577 121.632 49.9577C124.238 49.9577 126.731 48.7854 127.738 47.0896V49.5252H133.873V28.8904H127.738Z" fill="black"/>
<path fill-rule="evenodd" clip-rule="evenodd" d="M45.5973 41.7575C45.5973 43.8517 43.9071 45.5419 41.8129 45.5419C39.7187 45.5419 38.0285 43.846 38.0285 41.7575C38.0285 39.669 39.7187 37.9731 41.8129 37.9731H45.5973V41.7575ZM47.4866 41.7575C47.4866 39.6633 49.1768 37.9731 51.271 37.9731C53.3652 37.9731 55.0554 39.6633 55.0554 41.7575V51.2156C55.0554 53.3098 53.3652 55 51.271 55C49.1768 55 47.4866 53.3098 47.4866 51.2156V41.7575Z" fill="#E01E5A"/>
<path fill-rule="evenodd" clip-rule="evenodd" d="M51.2709 26.5688C49.1767 26.5688 47.4866 24.8786 47.4866 22.7844C47.4866 20.6902 49.1767 19 51.2709 19C53.3652 19 55.0553 20.6902 55.0553 22.7844V26.5688H51.2709ZM51.2709 28.4866C53.3652 28.4866 55.0553 30.1767 55.0553 32.2709C55.0553 34.3652 53.3652 36.0553 51.2709 36.0553H41.7844C39.6902 36.0553 38 34.3595 38 32.2709C38 30.1824 39.6902 28.4866 41.7844 28.4866H51.2709Z" fill="#36C5F0"/>
<path fill-rule="evenodd" clip-rule="evenodd" d="M66.4309 32.2709C66.4309 30.1767 68.1211 28.4866 70.2153 28.4866C72.3095 28.4866 73.9997 30.1767 73.9997 32.2709C73.9997 34.3652 72.3095 36.0553 70.2153 36.0553H66.4309V32.2709ZM64.5415 32.2709C64.5415 34.3652 62.8514 36.0553 60.7571 36.0553C58.6629 36.0553 56.9727 34.3652 56.9727 32.2709V22.7844C56.9727 20.6902 58.6629 19 60.7571 19C62.8514 19 64.5415 20.6902 64.5415 22.7844V32.2709Z" fill="#2EB67D"/>
<path fill-rule="evenodd" clip-rule="evenodd" d="M60.7571 47.4312C62.8514 47.4312 64.5415 49.1214 64.5415 51.2156C64.5415 53.3098 62.8514 55 60.7571 55C58.6629 55 56.9727 53.3098 56.9727 51.2156V47.4312H60.7571ZM60.7571 45.5419C58.6629 45.5419 56.9727 43.8517 56.9727 41.7575C56.9727 39.6633 58.6629 37.9731 60.7571 37.9731H70.2437C72.338 37.9731 74.0281 39.6633 74.0281 41.7575C74.0281 43.8517 72.338 45.5419 70.2437 45.5419H60.7571Z" fill="#ECB22E"/>
</svg>
