<svg width="218" height="74" viewBox="0 0 218 74" fill="none" xmlns="http://www.w3.org/2000/svg">
<rect x="0.0625" width="217.375" height="74" rx="10" fill="white"/>
<g clip-path="url(#clip0_1_135)">
<path d="M116.568 27.0501C116.568 28.4917 115.406 29.6525 113.965 29.6525C112.523 29.6525 111.362 28.4917 111.362 27.0501C111.362 25.6085 112.483 24.4478 113.965 24.4478C115.447 24.4878 116.568 25.6489 116.568 27.0501ZM105.837 32.2956V32.9364C105.837 32.9364 104.596 31.334 101.953 31.334C97.5893 31.334 94.1853 34.6576 94.1853 39.2619C94.1853 43.8266 97.5493 47.1897 101.953 47.1897C104.636 47.1897 105.837 45.5481 105.837 45.5481V46.2285C105.837 46.5489 106.077 46.7885 106.397 46.7885H109.64V31.7332H106.397C106.077 31.7344 105.837 32.0152 105.837 32.2956ZM105.837 41.9446C105.237 42.8258 104.035 43.5866 102.594 43.5866C100.032 43.5866 98.0693 41.985 98.0693 39.2619C98.0693 36.5391 100.032 34.9376 102.594 34.9376C103.996 34.9376 105.277 35.7383 105.837 36.5791V41.9446ZM112.043 31.7344H115.886V46.7897H112.043V31.7344ZM169.46 31.3336C166.817 31.3336 165.576 32.936 165.576 32.936V24.4878H161.732V46.7897H164.976C165.296 46.7897 165.536 46.5093 165.536 46.2289V45.5485C165.536 45.5485 166.777 47.1901 169.419 47.1901C173.784 47.1901 177.187 43.8278 177.187 39.2631C177.187 34.6984 173.784 31.3336 169.46 31.3336ZM168.819 43.5462C167.337 43.5462 166.176 42.7862 165.576 41.9046V36.5391C166.176 35.7383 167.457 34.8976 168.819 34.8976C171.381 34.8976 173.343 36.4991 173.343 39.2219C173.343 41.9446 171.382 43.5462 168.819 43.5462ZM159.73 37.8611V46.8297H155.886V38.3011C155.886 35.8191 155.085 34.8176 152.925 34.8176C151.764 34.8176 150.562 35.4183 149.8 36.2995V46.7901H145.957V31.7348H148.999C149.32 31.7348 149.56 32.0152 149.56 32.2956V32.9364C150.681 31.7748 152.163 31.334 153.644 31.334C155.326 31.334 156.727 31.8152 157.848 32.776C159.209 33.8972 159.73 35.3384 159.73 37.8611ZM136.627 31.3336C133.985 31.3336 132.743 32.936 132.743 32.936V24.4878H128.9V46.7897H132.143C132.463 46.7897 132.703 46.5093 132.703 46.2289V45.5485C132.703 45.5485 133.945 47.1901 136.587 47.1901C140.952 47.1901 144.355 43.8278 144.355 39.2631C144.395 34.698 140.992 31.3336 136.627 31.3336ZM135.986 43.5462C134.505 43.5462 133.344 42.7862 132.743 41.9046V36.5391C133.344 35.7383 134.625 34.8976 135.986 34.8976C138.549 34.8976 140.511 36.4991 140.511 39.2219C140.511 41.9446 138.549 43.5462 135.986 43.5462ZM125.576 31.3336C126.737 31.3336 127.338 31.5344 127.338 31.5344V35.0975C127.338 35.0975 124.135 34.0164 122.133 36.2991V46.8293H118.289V31.7344H121.532C121.853 31.7344 122.092 32.0148 122.092 32.2952V32.936C122.814 32.0948 124.376 31.3336 125.576 31.3336ZM85.6575 45.4282C85.4575 44.9478 85.2571 44.4274 85.0571 43.9866C84.7363 43.2662 84.4159 42.585 84.1363 41.9446L84.0963 41.9046C81.3332 35.8983 78.3708 29.8129 75.2473 23.8074L75.1273 23.5666C74.7988 22.9436 74.4786 22.3162 74.1669 21.6846C73.7661 20.9634 73.3661 20.2034 72.7254 19.4823C71.4442 17.8807 69.6022 16.9995 67.6407 16.9995C65.6383 16.9995 63.8367 17.8807 62.516 19.4019C61.9152 20.1223 61.4744 20.883 61.0744 21.6042C60.7619 22.2354 60.4418 22.8628 60.114 23.4862L59.9936 23.727C56.9105 29.7325 53.9077 35.8183 51.145 41.8242L51.1046 41.9038C50.8246 42.5454 50.5038 43.2258 50.1834 43.9458C49.9834 44.3866 49.7834 44.867 49.5834 45.3873C49.0626 46.8685 48.9022 48.2701 49.103 49.7121C49.5434 52.7152 51.545 55.2368 54.3081 56.3587C55.3493 56.7995 56.4305 56.9995 57.5513 56.9995C57.8716 56.9995 58.2717 56.9595 58.5924 56.9191C59.914 56.7591 61.2752 56.3191 62.5968 55.5583C64.2383 54.6372 65.7999 53.3164 67.5615 51.3944C69.323 53.3164 70.9246 54.6372 72.5262 55.5583C73.8481 56.3191 75.2089 56.7591 76.5301 56.9191C76.8505 56.9599 77.2513 56.9995 77.5717 56.9995C78.6928 56.9995 79.8136 56.7995 80.8144 56.3587C83.6175 55.2368 85.5791 52.6752 86.0199 49.7121C86.3379 48.3109 86.1779 46.9101 85.6575 45.4282ZM67.6003 47.5101C65.4379 44.7874 64.0363 42.225 63.5563 40.0635C63.3563 39.1423 63.3159 38.3415 63.4363 37.6207C63.5159 36.9799 63.7567 36.4191 64.0771 35.9387C64.8379 34.8584 66.1191 34.1772 67.6007 34.1772C69.0826 34.1772 70.4038 34.818 71.1246 35.9387C71.445 36.4191 71.685 36.9803 71.7658 37.6207C71.8854 38.3419 71.8454 39.1823 71.6454 40.0635C71.1634 42.185 69.7618 44.7478 67.6003 47.5101ZM83.5751 49.3921C83.2951 51.474 81.8936 53.2764 79.932 54.0772C78.9712 54.4772 77.9297 54.5976 76.8893 54.4772C75.8885 54.3568 74.8869 54.0364 73.8465 53.4364C72.405 52.6348 70.9638 51.3944 69.2818 49.5521C71.9242 46.3093 73.5257 43.3458 74.1265 40.7038C74.4069 39.4623 74.4473 38.3415 74.3265 37.2999C74.1669 36.2991 73.8061 35.3779 73.2457 34.5772C72.0038 32.7748 69.9214 31.7344 67.5999 31.7344C65.2783 31.7344 63.1959 32.8156 61.9548 34.5772C61.3944 35.3779 61.0336 36.2991 60.8736 37.2999C60.7136 38.3415 60.7532 39.5023 61.0736 40.7038C61.674 43.3458 63.3156 46.3489 65.9179 49.5921C64.2763 51.434 62.7948 52.6756 61.3532 53.4764C60.312 54.0772 59.3116 54.3976 58.3108 54.5172C57.2301 54.6376 56.1885 54.4772 55.2677 54.1172C53.3061 53.3164 51.9046 51.514 51.6246 49.4321C51.5046 48.4313 51.5842 47.4305 51.985 46.3093C52.1046 45.9085 52.3054 45.5086 52.5054 45.0282C52.7858 44.3874 53.1053 43.7062 53.4261 43.0258L53.4665 42.9462C56.2289 36.9799 59.1916 30.894 62.2748 24.9686L62.3948 24.7278C62.7156 24.1278 63.036 23.487 63.356 22.8862C63.6763 22.2454 64.0363 21.6446 64.4771 21.1238C65.3179 20.1639 66.4387 19.6427 67.6803 19.6427C68.9218 19.6427 70.0426 20.1639 70.8834 21.1238C71.3242 21.6458 71.6842 22.2466 72.0046 22.8862C72.3254 23.487 72.6458 24.1278 72.9654 24.7278L73.0857 24.9686C76.1219 30.9187 79.0453 36.9256 81.8544 42.9862V43.0262C82.1752 43.6678 82.4552 44.3878 82.7756 45.0294C82.9756 45.5089 83.1759 45.9089 83.2959 46.3097C83.6155 47.3497 83.7355 48.3513 83.5751 49.3921Z" fill="#FF5A5F"/>
</g>
<defs>
<clipPath id="clip0_1_135">
<rect width="128.205" height="40" fill="white" transform="translate(49 17)"/>
</clipPath>
</defs>
</svg>
