<svg width="219" height="74" viewBox="0 0 219 74" fill="none" xmlns="http://www.w3.org/2000/svg">
<rect x="0.8125" width="217.375" height="74" rx="10" fill="white"/>
<path fill-rule="evenodd" clip-rule="evenodd" d="M145.443 31.6513C145.877 32.4001 146.019 33.252 146.066 34.2098L146.127 35.4864V44.4129L146.19 45.6908C146.316 47.7778 147.855 49.3209 149.958 49.4522L151.229 49.5151V35.4864L151.292 34.2098C151.345 33.2628 151.485 32.3948 151.926 31.6406C152.375 30.8671 153.02 30.2253 153.795 29.7797C154.571 29.3341 155.45 29.1004 156.344 29.1021C157.239 29.1037 158.117 29.3406 158.891 29.789C159.665 30.2374 160.307 30.8815 160.753 31.6567C161.187 32.4055 161.323 33.2735 161.375 34.2098L161.438 35.4823V44.4129L161.501 45.6908C161.632 47.7885 163.159 49.3316 165.269 49.4522L166.54 49.5151V34.2098C166.54 31.5034 165.465 28.9078 163.552 26.9937C161.639 25.0796 159.043 24.0037 156.337 24.0027C154.888 24.0012 153.456 24.3088 152.136 24.905C150.816 25.5012 149.638 26.3722 148.682 27.46C147.725 26.3727 146.547 25.5018 145.227 24.9054C143.907 24.3091 142.475 24.0008 141.026 24.0013C138.907 24.0013 136.941 24.6443 135.312 25.7548C134.318 24.6457 132.094 24.0013 130.818 24.0013V49.5151L132.094 49.4522C134.23 49.3115 135.773 47.8099 135.856 45.6908L135.924 44.4129V35.4864L135.987 34.2098C136.041 33.2467 136.175 32.4001 136.61 31.646C137.059 30.8729 137.704 30.2313 138.479 29.7852C139.254 29.339 140.132 29.104 141.026 29.1036C141.921 29.1038 142.8 29.3392 143.575 29.7864C144.351 30.2336 144.995 30.8767 145.443 31.6513ZM58.1022 49.4535L59.3788 49.5151H78.5138L78.4508 48.2426C78.278 46.1449 76.7925 44.6125 74.6881 44.4759L73.4116 44.4129H61.9319L77.2372 29.1022L77.1743 27.831C77.0751 25.7119 75.5267 24.1808 73.4116 24.0643L72.135 24.0067L53 24.0013L53.063 25.2779C53.2304 27.3555 54.7374 28.92 56.8243 29.0406L58.1022 29.1036H69.5819L54.2766 44.4142L54.3395 45.6908C54.4654 47.7938 55.9831 49.3169 58.1022 49.4522V49.4535ZM125.809 27.7359C126.994 28.9205 127.934 30.3268 128.575 31.8747C129.217 33.4225 129.547 35.0815 129.547 36.7569C129.547 38.4323 129.217 40.0913 128.575 41.6391C127.934 43.187 126.994 44.5933 125.809 45.7779C123.416 48.1696 120.17 49.5132 116.786 49.5132C113.403 49.5132 110.157 48.1696 107.763 45.7779C102.782 40.7962 102.782 32.7176 107.763 27.7359C108.947 26.5518 110.353 25.6123 111.899 24.9713C113.446 24.3303 115.104 24.0003 116.778 24C118.455 23.9988 120.116 24.3283 121.666 24.9696C123.216 25.6109 124.624 26.5513 125.809 27.7373V27.7359ZM122.199 31.3486C123.634 32.7846 124.44 34.7316 124.44 36.7616C124.44 38.7916 123.634 40.7386 122.199 42.1746C120.763 43.6095 118.816 44.4155 116.786 44.4155C114.756 44.4155 112.809 43.6095 111.373 42.1746C109.939 40.7386 109.133 38.7916 109.133 36.7616C109.133 34.7316 109.939 32.7846 111.373 31.3486C112.809 29.9137 114.756 29.1077 116.786 29.1077C118.816 29.1077 120.763 29.9137 122.199 31.3486ZM90.0041 24C91.6786 24.0004 93.3366 24.3307 94.8834 24.972C96.4301 25.6132 97.8355 26.5528 99.0191 27.7373C104.002 32.7176 104.002 40.7975 99.0191 45.7779C96.6254 48.1696 93.38 49.5132 89.9961 49.5132C86.6123 49.5132 83.3668 48.1696 80.9731 45.7779C75.9915 40.7962 75.9915 32.7176 80.9731 27.7359C82.1569 26.5518 83.5622 25.6123 85.109 24.9713C86.6558 24.3303 88.3137 24.0003 89.9881 24H90.0041ZM95.4091 31.3459C96.8444 32.782 97.6507 34.7292 97.6507 36.7596C97.6507 38.7899 96.8444 40.7372 95.4091 42.1732C93.9731 43.6081 92.0261 44.4142 89.9961 44.4142C87.9661 44.4142 86.0191 43.6081 84.5831 42.1732C83.1482 40.7372 82.3422 38.7903 82.3422 36.7602C82.3422 34.7302 83.1482 32.7832 84.5831 31.3473C86.0191 29.9123 87.9661 29.1063 89.9961 29.1063C92.0261 29.1063 93.9731 29.9123 95.4091 31.3473V31.3459Z" fill="#2D8CFF"/>
</svg>
