<svg width="218" height="74" viewBox="0 0 218 74" fill="none" xmlns="http://www.w3.org/2000/svg">
<rect x="0.375" width="217.375" height="74" rx="10" fill="white"/>
<path fill-rule="evenodd" clip-rule="evenodd" d="M123.602 47.1539C116.679 52.2727 106.609 55 97.9238 55C85.7561 55 74.8472 50.5105 66.5395 43.042C65.9102 42.4546 66.4556 41.6574 67.2528 42.1189C76.1898 47.3217 87.2246 50.4266 98.6371 50.4266C106.315 50.4266 114.791 48.8322 122.595 45.5175C123.77 45.056 124.735 46.3147 123.602 47.1539Z" fill="#FF9900"/>
<path fill-rule="evenodd" clip-rule="evenodd" d="M126.496 43.8393C125.615 42.7064 120.622 43.2938 118.398 43.5875C117.727 43.6714 117.601 43.084 118.231 42.6644C122.217 39.8533 128.72 40.6924 129.475 41.6155C130.23 42.5386 129.265 49.084 125.531 52.1888C124.944 52.6504 124.398 52.3986 124.65 51.7692C125.489 49.6714 127.377 45.0141 126.496 43.8393Z" fill="#FF9900"/>
<path fill-rule="evenodd" clip-rule="evenodd" d="M118.525 22.9443V20.217C118.525 19.7974 118.819 19.5457 119.196 19.5457H131.364C131.742 19.5457 132.077 19.8394 132.077 20.217V22.5247C132.077 22.9023 131.742 23.4058 131.154 24.2449L124.861 33.2239C127.21 33.1819 129.686 33.5176 131.784 34.6924C132.245 34.9441 132.371 35.3637 132.413 35.7413V38.6364C132.413 39.056 131.993 39.5175 131.532 39.2658C127.798 37.2938 122.805 37.084 118.693 39.3077C118.273 39.5175 117.812 39.0979 117.812 38.6784V35.9092C117.812 35.4896 117.812 34.7343 118.273 34.063L125.574 23.6156H119.238C118.861 23.6156 118.525 23.3219 118.525 22.9443ZM74.1758 39.8532H70.4836C70.1479 39.8112 69.8542 39.5595 69.8122 39.2238V20.259C69.8122 19.8814 70.1479 19.5876 70.5255 19.5876H73.966C74.3437 19.5876 74.5954 19.8814 74.6374 20.217V22.6925H74.7213C75.6024 20.3009 77.3226 19.1681 79.5884 19.1681C81.896 19.1681 83.3645 20.3009 84.3715 22.6925C85.2526 20.3009 87.3086 19.1681 89.4903 19.1681C91.0428 19.1681 92.7211 19.7974 93.77 21.266C94.9448 22.8603 94.6931 25.168 94.6931 27.2239V39.2238C94.6931 39.6014 94.3574 39.8951 93.9798 39.8951H90.3295C89.9519 39.8532 89.6582 39.5595 89.6582 39.2238V29.154C89.6582 28.3568 89.7421 26.3428 89.5743 25.5876C89.2806 24.3289 88.4834 23.9512 87.3925 23.9512C86.5114 23.9512 85.5463 24.5386 85.1687 25.5037C84.7911 26.4687 84.8331 28.0631 84.8331 29.154V39.2238C84.8331 39.6014 84.4974 39.8951 84.1198 39.8951H80.4275C80.0499 39.8532 79.7562 39.5595 79.7562 39.2238V29.154C79.7562 27.0561 80.0918 23.9093 77.4905 23.9093C74.8471 23.9093 74.9311 26.9302 74.9311 29.154V39.2238C74.8891 39.5595 74.5954 39.8532 74.1758 39.8532ZM142.567 19.1681C148.063 19.1681 151.042 23.8673 151.042 29.8673C151.042 35.6574 147.769 40.2727 142.567 40.2727C137.196 40.2727 134.259 35.5735 134.259 29.6994C134.217 23.7834 137.196 19.1681 142.567 19.1681ZM142.567 23.0701C139.839 23.0701 139.672 26.8044 139.672 29.112C139.672 31.4197 139.63 36.3707 142.525 36.3707C145.378 36.3707 145.546 32.3847 145.546 29.9512C145.546 28.3568 145.462 26.4267 145 24.9163C144.581 23.5736 143.742 23.0701 142.567 23.0701ZM158.133 39.8532H154.441C154.063 39.8112 153.769 39.5175 153.769 39.1819V20.1751C153.811 19.8394 154.105 19.5457 154.483 19.5457H157.923C158.259 19.5457 158.511 19.7974 158.595 20.0911V22.9862H158.678C159.727 20.3848 161.154 19.1681 163.713 19.1681C165.35 19.1681 166.986 19.7555 168.035 21.3918C169 22.9023 169 25.4617 169 27.3078V39.2658C168.958 39.6014 168.664 39.8532 168.287 39.8532H164.594C164.259 39.8112 163.965 39.5595 163.923 39.2658V28.9442C163.923 26.8463 164.175 23.8254 161.615 23.8254C160.734 23.8254 159.895 24.4128 159.476 25.3358C158.972 26.5107 158.888 27.6435 158.888 28.9442V39.1819C158.846 39.5595 158.511 39.8532 158.133 39.8532ZM108.833 30.7903C108.833 32.2169 108.875 33.4337 108.161 34.7343C107.574 35.7833 106.651 36.4126 105.602 36.4126C104.176 36.4126 103.336 35.3218 103.336 33.7274C103.336 30.5805 106.148 29.9931 108.833 29.9931V30.7903ZM112.567 39.8112C112.315 40.021 111.98 40.063 111.686 39.8951C110.469 38.8881 110.217 38.3847 109.546 37.4196C107.532 39.4755 106.064 40.1049 103.462 40.1049C100.357 40.1049 97.9238 38.1749 97.9238 34.3567C97.9238 31.3358 99.5602 29.3218 101.868 28.3148C103.882 27.4337 106.693 27.2659 108.833 27.0141V26.5526C108.833 25.6715 108.917 24.6226 108.371 23.8673C107.91 23.196 107.071 22.9023 106.315 22.9023C104.889 22.9023 103.63 23.6156 103.336 25.1261C103.252 25.4617 103.043 25.7974 102.707 25.7974L99.1406 25.4198C98.8469 25.3358 98.5112 25.1261 98.5952 24.6645C99.4343 20.3009 103.336 19.0002 106.861 19.0002C108.665 19.0002 111.015 19.4618 112.441 20.8464C114.245 22.5247 114.078 24.7904 114.078 27.2239V32.9721C114.078 34.6924 114.791 35.4476 115.462 36.4126C115.714 36.7483 115.756 37.1679 115.462 37.3777C114.665 38.007 113.322 39.1819 112.567 39.8112ZM60.3718 30.7903C60.3718 32.2169 60.4137 33.4337 59.7005 34.7343C59.113 35.7833 58.19 36.4126 57.141 36.4126C55.7145 36.4126 54.8753 35.3218 54.8753 33.7274C54.8753 30.5805 57.6865 29.9931 60.3718 29.9931V30.7903ZM64.064 39.8112C63.8123 40.021 63.4766 40.063 63.1829 39.8951C61.9662 38.8881 61.7144 38.3847 61.0431 37.4196C59.0291 39.4755 57.5606 40.1049 54.9592 40.1049C51.8544 40.1049 49.4208 38.1749 49.4208 34.3567C49.4208 31.3358 51.0572 29.3218 53.3648 28.3148C55.3788 27.4337 58.19 27.2659 60.3298 27.0141V26.5526C60.3298 25.6715 60.4137 24.6226 59.8683 23.8673C59.4067 23.196 58.5676 22.9023 57.8124 22.9023C56.3858 22.9023 55.1271 23.6156 54.8334 25.1261C54.7495 25.4617 54.5397 25.7974 54.204 25.7974L50.6376 25.4198C50.3439 25.3358 50.0082 25.1261 50.0922 24.6645C50.9313 20.3009 54.8334 19.0002 58.3578 19.0002C60.162 19.0002 62.5116 19.4618 63.9382 20.8464C65.7423 22.5247 65.5745 24.7904 65.5745 27.2239V32.9721C65.5745 34.6924 66.2878 35.4476 66.9591 36.4126C67.2109 36.7483 67.2528 37.1679 66.9591 37.3777C66.1619 38.007 64.8193 39.1819 64.064 39.8112Z" fill="black"/>
</svg>
